<mxfile host="" modified="2021-02-05T08:51:36.520Z" agent="5.0 (Windows NT 6.2; Win64; x64) AppleWebKit/537.36 (KHTML, like Gecko) Chrome/81.0.4044.113 Safari/537.36" etag="072glc8jzx8xZtyv_FZc" version="13.7.9" type="embed"><diagram name="Page-1" id="5f0bae14-7c28-e335-631c-24af17079c00"><mxGraphModel dx="1012" dy="742" grid="1" gridSize="10" guides="1" tooltips="1" connect="1" arrows="1" fold="1" page="1" pageScale="1" pageWidth="1100" pageHeight="850" background="#ffffff" math="0" shadow="0"><root><mxCell id="0"/><mxCell id="1" parent="0"/><mxCell id="cOzXBnHHcGTaf1wKDFXl-1" value="persitence&#10;实体及持久化&#10;&#10;&#10;&#10;&#10;" style="shape=module;align=left;spacingLeft=20;align=center;verticalAlign=top;fillColor=#d5e8d4;fontStyle=1;strokeColor=#82b366;gradientColor=#97d077;fontColor=#000000;" parent="1" vertex="1"><mxGeometry x="490" y="365" width="170" height="70" as="geometry"/></mxCell><mxCell id="cOzXBnHHcGTaf1wKDFXl-2" value="domain&#10;业务实体" style="shape=module;align=left;spacingLeft=20;align=center;verticalAlign=top;fillColor=#d5e8d4;fontStyle=1;gradientColor=#97d077;strokeColor=#82b366;fontColor=#000000;" parent="1" vertex="1"><mxGeometry x="170" y="365" width="170" height="70" as="geometry"/></mxCell><mxCell id="cOzXBnHHcGTaf1wKDFXl-16" value="" style="edgeStyle=orthogonalEdgeStyle;rounded=0;orthogonalLoop=1;jettySize=auto;html=1;strokeColor=#000000;" parent="1" source="cOzXBnHHcGTaf1wKDFXl-3" target="cOzXBnHHcGTaf1wKDFXl-12" edge="1"><mxGeometry relative="1" as="geometry"/></mxCell><mxCell id="cOzXBnHHcGTaf1wKDFXl-26" value="" style="edgeStyle=orthogonalEdgeStyle;rounded=0;orthogonalLoop=1;jettySize=auto;html=1;strokeColor=#000000;" parent="1" source="cOzXBnHHcGTaf1wKDFXl-3" target="cOzXBnHHcGTaf1wKDFXl-25" edge="1"><mxGeometry relative="1" as="geometry"/></mxCell><mxCell id="cOzXBnHHcGTaf1wKDFXl-3" value="api&#10;业务处理层" style="shape=module;align=left;spacingLeft=20;align=center;verticalAlign=top;fillColor=#d5e8d4;fontStyle=1;strokeColor=#82b366;gradientColor=#97d077;fontColor=#000000;" parent="1" vertex="1"><mxGeometry x="330" y="260" width="170" height="70" as="geometry"/></mxCell><mxCell id="cOzXBnHHcGTaf1wKDFXl-4" value="client&#10;接口客户端封装" style="shape=module;align=left;spacingLeft=20;align=center;verticalAlign=top;fontStyle=1;gradientColor=#ffa500;strokeColor=#d79b00;fillColor=#808080;" parent="1" vertex="1"><mxGeometry x="670" y="120" width="170" height="70" as="geometry"/></mxCell><mxCell id="cOzXBnHHcGTaf1wKDFXl-19" value="" style="edgeStyle=orthogonalEdgeStyle;rounded=0;orthogonalLoop=1;jettySize=auto;html=1;strokeColor=#000000;" parent="1" source="cOzXBnHHcGTaf1wKDFXl-6" target="cOzXBnHHcGTaf1wKDFXl-17" edge="1"><mxGeometry relative="1" as="geometry"/></mxCell><mxCell id="cOzXBnHHcGTaf1wKDFXl-24" value="" style="edgeStyle=orthogonalEdgeStyle;rounded=0;orthogonalLoop=1;jettySize=auto;html=1;strokeColor=#000000;" parent="1" source="cOzXBnHHcGTaf1wKDFXl-6" target="cOzXBnHHcGTaf1wKDFXl-22" edge="1"><mxGeometry relative="1" as="geometry"/></mxCell><mxCell id="cOzXBnHHcGTaf1wKDFXl-6" value="web&#10;Res 接口" style="shape=module;align=left;spacingLeft=20;align=center;verticalAlign=top;fillColor=#d5e8d4;fontStyle=1;gradientColor=#97d077;strokeColor=#82b366;fontColor=#000000;" parent="1" vertex="1"><mxGeometry x="330" y="120" width="170" height="70" as="geometry"/></mxCell><mxCell id="cOzXBnHHcGTaf1wKDFXl-14" value="" style="edgeStyle=orthogonalEdgeStyle;rounded=0;orthogonalLoop=1;jettySize=auto;html=1;fillColor=#647687;strokeColor=#314354;" parent="1" source="cOzXBnHHcGTaf1wKDFXl-12" target="cOzXBnHHcGTaf1wKDFXl-2" edge="1"><mxGeometry relative="1" as="geometry"/></mxCell><mxCell id="cOzXBnHHcGTaf1wKDFXl-21" value="" style="edgeStyle=orthogonalEdgeStyle;rounded=0;orthogonalLoop=1;jettySize=auto;html=1;strokeColor=#000000;" parent="1" source="cOzXBnHHcGTaf1wKDFXl-12" target="cOzXBnHHcGTaf1wKDFXl-1" edge="1"><mxGeometry relative="1" as="geometry"/></mxCell><mxCell id="cOzXBnHHcGTaf1wKDFXl-12" value="" style="shape=providedRequiredInterface;html=1;verticalLabelPosition=bottom;fillColor=#60a917;strokeColor=#2D7600;fontColor=#ffffff;" parent="1" vertex="1"><mxGeometry x="405" y="390" width="20" height="20" as="geometry"/></mxCell><mxCell id="cOzXBnHHcGTaf1wKDFXl-18" value="" style="edgeStyle=orthogonalEdgeStyle;rounded=0;orthogonalLoop=1;jettySize=auto;html=1;strokeColor=#000000;" parent="1" source="cOzXBnHHcGTaf1wKDFXl-17" target="cOzXBnHHcGTaf1wKDFXl-3" edge="1"><mxGeometry relative="1" as="geometry"/></mxCell><mxCell id="cOzXBnHHcGTaf1wKDFXl-17" value="" style="shape=providedRequiredInterface;html=1;verticalLabelPosition=bottom;fillColor=#60a917;strokeColor=#2D7600;fontColor=#ffffff;" parent="1" vertex="1"><mxGeometry x="405" y="220" width="20" height="20" as="geometry"/></mxCell><mxCell id="cOzXBnHHcGTaf1wKDFXl-23" value="" style="edgeStyle=orthogonalEdgeStyle;rounded=0;orthogonalLoop=1;jettySize=auto;html=1;strokeColor=#000000;" parent="1" source="cOzXBnHHcGTaf1wKDFXl-22" target="cOzXBnHHcGTaf1wKDFXl-4" edge="1"><mxGeometry relative="1" as="geometry"/></mxCell><mxCell id="cOzXBnHHcGTaf1wKDFXl-22" value="" style="shape=providedRequiredInterface;html=1;verticalLabelPosition=bottom;fillColor=#60a917;strokeColor=#2D7600;fontColor=#ffffff;" parent="1" vertex="1"><mxGeometry x="565" y="145" width="20" height="20" as="geometry"/></mxCell><mxCell id="cOzXBnHHcGTaf1wKDFXl-28" value="" style="edgeStyle=orthogonalEdgeStyle;rounded=0;orthogonalLoop=1;jettySize=auto;html=1;strokeColor=#000000;" parent="1" source="cOzXBnHHcGTaf1wKDFXl-25" edge="1"><mxGeometry relative="1" as="geometry"><mxPoint x="670" y="295" as="targetPoint"/></mxGeometry></mxCell><mxCell id="cOzXBnHHcGTaf1wKDFXl-25" value="" style="shape=providedRequiredInterface;html=1;verticalLabelPosition=bottom;fillColor=#60a917;strokeColor=#2D7600;fontColor=#ffffff;" parent="1" vertex="1"><mxGeometry x="565" y="285" width="20" height="20" as="geometry"/></mxCell><mxCell id="cOzXBnHHcGTaf1wKDFXl-29" value="framework&amp;nbsp;&lt;br&gt;核心组件" style="shape=folder;fontStyle=1;spacingTop=10;tabWidth=40;tabHeight=14;tabPosition=left;html=1;fillColor=#808080;" parent="1" vertex="1"><mxGeometry x="680" y="245" width="180" height="100" as="geometry"/></mxCell></root></mxGraphModel></diagram></mxfile>